<svg width="34" height="34" viewBox="0 0 34 34" fill="none" xmlns="http://www.w3.org/2000/svg">
<path d="M17.0002 0.333374C13.7038 0.333374 10.4815 1.31086 7.74067 3.14221C4.99985 4.97357 2.86364 7.57655 1.60218 10.622C0.340717 13.6674 0.0106619 17.0185 0.653749 20.2515C1.29684 23.4846 2.88418 26.4543 5.21506 28.7852C7.54593 31.116 10.5156 32.7034 13.7487 33.3465C16.9817 33.9896 20.3328 33.6595 23.3782 32.398C26.4237 31.1366 29.0266 29.0004 30.858 26.2595C32.6894 23.5187 33.6668 20.2964 33.6668 17C33.662 12.5813 31.9045 8.34484 28.7799 5.22029C25.6554 2.09573 21.419 0.338227 17.0002 0.333374V0.333374ZM17.0002 30.3334C14.3631 30.3334 11.7852 29.5514 9.59257 28.0863C7.39991 26.6212 5.69095 24.5388 4.68178 22.1025C3.67261 19.6661 3.40856 16.9853 3.92303 14.3988C4.4375 11.8124 5.70738 9.43665 7.57208 7.57195C9.43678 5.70725 11.8126 4.43737 14.399 3.9229C16.9854 3.40843 19.6663 3.67248 22.1026 4.68165C24.539 5.69082 26.6213 7.39978 28.0864 9.59244C29.5515 11.7851 30.3335 14.363 30.3335 17C30.3295 20.535 28.9235 23.9241 26.4239 26.4237C23.9242 28.9234 20.5352 30.3294 17.0002 30.3334V30.3334Z" fill="#F86338"/>
<path d="M24.1553 10.8217L15.3336 19.6433L11.5119 15.8217L9.15527 18.1783L15.3336 24.3567L26.5119 13.1783L24.1553 10.8217Z" fill="#F86338"/>
</svg>
