<svg width="22" height="20" viewBox="0 0 22 20" fill="none" xmlns="http://www.w3.org/2000/svg">
<path d="M11 19.571L2.515 11.0861C1.38969 9.96087 0.757439 8.43474 0.757345 6.8434C0.757251 5.25206 1.38932 3.72586 2.5145 2.60055C3.63968 1.47524 5.16581 0.842989 6.75715 0.842896C8.34849 0.842802 9.87469 1.47487 11 2.60005C12.1259 1.47614 13.6517 0.844899 15.2425 0.844899C16.8333 0.844899 18.3591 1.47614 19.485 2.60005C20.6084 3.72616 21.2393 5.25189 21.2393 6.84255C21.2393 8.43321 20.6084 9.95894 19.485 11.0851L11 19.571ZM6.757 2.84305C5.96579 2.84302 5.19235 3.07764 4.5345 3.51722C3.87664 3.95681 3.36393 4.58162 3.06121 5.31262C2.75849 6.04363 2.67936 6.84799 2.83382 7.62397C2.98829 8.39995 3.36942 9.1127 3.929 9.67205L11 16.7431L18.071 9.67205C18.4771 9.27496 18.794 8.79592 19.0006 8.26682C19.2072 7.73772 19.2988 7.17069 19.2692 6.60345C19.2396 6.03622 19.0895 5.4818 18.8289 4.97708C18.5684 4.47236 18.2033 4.02892 17.7581 3.67626C17.3128 3.32361 16.7975 3.06984 16.2465 2.93182C15.6955 2.79381 15.1215 2.77472 14.5626 2.87583C14.0036 2.97695 13.4726 3.19594 13.0049 3.51824C12.5372 3.84054 12.1435 4.25875 11.85 4.74505L11 6.11705L10.15 4.74505C9.79911 4.16008 9.30141 3.677 8.70623 3.34372C8.11106 3.01044 7.4391 2.83853 6.757 2.84505V2.84305Z" fill="#F86338"/>
</svg>
