<svg width="168" height="33" viewBox="0 0 168 33" fill="none" xmlns="http://www.w3.org/2000/svg">
<path d="M0.979126 11.0608V17.1007C3.06483 17.0993 5.13036 17.5048 7.05751 18.2942C8.98466 19.0835 10.7356 20.2412 12.2102 21.7008C13.6844 23.16 14.8535 24.8924 15.6507 26.799C16.4479 28.7055 16.8575 30.7489 16.8562 32.8122H22.9554C22.9499 27.0458 20.6329 21.5171 16.5129 17.4392C12.3928 13.3613 6.8063 11.0674 0.979126 11.0608H0.979126Z" fill="black"/>
<path d="M31.4812 0.1875H21.8153C26.7051 3.25394 30.8484 7.35342 33.9478 12.1918V2.62665C33.9473 1.97959 33.6873 1.35918 33.2247 0.901805C32.7622 0.444425 32.1351 0.1875 31.4812 0.1875V0.1875Z" fill="black"/>
<path d="M7.05232 0.1875H0.979126V5.62557C8.26327 5.63307 15.2469 8.49978 20.3977 13.5967C25.5484 18.6936 28.4456 25.6043 28.4534 32.8125H33.9479V26.8026C32.7056 20.1974 29.4711 14.1193 24.6702 9.36843C19.8693 4.61761 13.7272 1.41684 7.05232 0.1875V0.1875Z" fill="black"/>
<path d="M48.8975 3.77881H45.0262V23.0877H48.8975V3.77881Z" fill="black"/>
<path d="M63.1314 12.1444C62.487 11.5647 61.7326 11.1173 60.9121 10.8282C59.1496 10.2158 57.2288 10.2158 55.4662 10.8282C54.6454 11.1171 53.8907 11.5645 53.246 12.1444C52.6138 12.7212 52.1087 13.4209 51.7624 14.1998C51.4045 15.0495 51.2202 15.9609 51.2202 16.8815C51.2202 17.802 51.4045 18.7135 51.7624 19.5632C52.1074 20.3442 52.6126 21.0459 53.246 21.6237C53.8895 22.204 54.6438 22.6512 55.4645 22.939C57.2268 23.5525 59.148 23.5525 60.9104 22.939C61.7313 22.6512 62.4859 22.204 63.1297 21.6237C63.7628 21.0457 64.268 20.3441 64.6133 19.5632C64.9712 18.7135 65.1555 17.802 65.1555 16.8815C65.1555 15.9609 64.9712 15.0495 64.6133 14.1998C64.2673 13.4212 63.7629 12.7215 63.1314 12.1444ZM60.4731 19.1553C59.8462 19.7141 59.0324 20.0234 58.1887 20.0234C57.345 20.0234 56.5312 19.7141 55.9043 19.1553C55.3775 18.5117 55.09 17.7085 55.09 16.8802C55.09 16.0518 55.3775 15.2487 55.9043 14.605C56.5312 14.0462 57.345 13.737 58.1887 13.737C59.0324 13.737 59.8462 14.0462 60.4731 14.605C61 15.2487 61.2875 16.0518 61.2875 16.8802C61.2875 17.7085 61 18.5117 60.4731 19.1553V19.1553Z" fill="black"/>
<path d="M77.0294 12.3101H76.9808C76.8018 12.0614 76.5939 11.8343 76.3614 11.6336C76.0797 11.387 75.7678 11.1764 75.433 11.0068C74.5869 10.5772 73.6476 10.3582 72.6966 10.3689C71.8633 10.3545 71.0391 10.5432 70.2969 10.9184C69.6052 11.2728 68.9945 11.764 68.5027 12.3616C68.0011 12.9776 67.6163 13.6783 67.367 14.4299C67.1018 15.2042 66.9667 16.0163 66.967 16.8338C66.9572 17.7114 67.1059 18.5837 67.406 19.4095C67.6779 20.1631 68.1018 20.8542 68.6519 21.4408C69.1999 22.0149 69.865 22.467 70.6031 22.7673C71.4056 23.091 72.2657 23.2515 73.1322 23.2395C73.7731 23.2286 74.4068 23.1032 75.0027 22.8695C75.671 22.6186 76.25 22.1788 76.6676 21.6048H76.7197V22.8068C76.7342 23.2077 76.6674 23.6074 76.5233 23.9824C76.3793 24.3574 76.1608 24.7 75.8807 24.9901C75.5254 25.3012 75.11 25.5377 74.6596 25.6852C74.2092 25.8328 73.7333 25.8884 73.2606 25.8486C72.511 25.8569 71.7682 25.7089 71.0803 25.4142C70.3959 25.1116 69.7573 24.7163 69.1829 24.2397L67.0408 27.4035C67.9163 28.1014 68.9398 28.5947 70.0348 28.8467C71.1184 29.0933 72.2268 29.2174 73.3387 29.2167C75.7818 29.2167 77.6012 28.608 78.7967 27.3906C79.9923 26.1732 80.5903 24.3897 80.5909 22.0401V10.6754H77.0338L77.0294 12.3101ZM76.7969 17.9671C76.6442 18.3306 76.4204 18.6606 76.1384 18.9381C75.8513 19.2212 75.5147 19.4505 75.145 19.6147C74.7611 19.7834 74.3457 19.8706 73.9256 19.8706C73.5055 19.8706 73.0901 19.7834 72.7062 19.6147C72.3414 19.4481 72.0092 19.2191 71.7249 18.9381C71.4417 18.6582 71.217 18.3257 71.0637 17.9598C70.9105 17.5939 70.8316 17.2016 70.8316 16.8055C70.8316 16.4094 70.9105 16.0171 71.0637 15.6512C71.217 15.2853 71.4417 14.9528 71.7249 14.6729C72.0094 14.3919 72.3415 14.1626 72.7062 13.9955C73.0902 13.8273 73.5056 13.7405 73.9256 13.7405C74.3456 13.7405 74.7609 13.8273 75.145 13.9955C75.5146 14.1603 75.8511 14.3898 76.1384 14.6729C76.5643 15.0965 76.854 15.6352 76.9712 16.2214C77.0884 16.8076 77.0277 17.415 76.7969 17.9671V17.9671Z" fill="black"/>
<path d="M95.1345 12.1444C94.49 11.5647 93.7357 11.1173 92.9152 10.8282C91.1526 10.2158 89.2318 10.2158 87.4693 10.8282C86.6484 11.1171 85.8937 11.5645 85.2491 12.1444C84.6169 12.7212 84.1118 13.4209 83.7655 14.1998C83.4075 15.0495 83.2233 15.9609 83.2233 16.8815C83.2233 17.802 83.4075 18.7135 83.7655 19.5632C84.1105 20.3442 84.6157 21.0459 85.2491 21.6237C85.8931 22.2042 86.648 22.6514 87.4693 22.939C89.2316 23.5525 91.1528 23.5525 92.9152 22.939C93.7361 22.6512 94.4906 22.204 95.1345 21.6237C95.7679 21.0459 96.2731 20.3442 96.6181 19.5632C96.976 18.7135 97.1603 17.802 97.1603 16.8815C97.1603 15.9609 96.976 15.0495 96.6181 14.1998C96.2718 13.4209 95.7667 12.7212 95.1345 12.1444V12.1444ZM92.4762 19.1553C91.8493 19.7141 91.0355 20.0234 90.1918 20.0234C89.3481 20.0234 88.5343 19.7141 87.9074 19.1553C87.3805 18.5117 87.093 17.7085 87.093 16.8802C87.093 16.0518 87.3805 15.2487 87.9074 14.605C88.5343 14.0462 89.3481 13.737 90.1918 13.737C91.0355 13.737 91.8493 14.0462 92.4762 14.605C93.0031 15.2487 93.2906 16.0518 93.2906 16.8802C93.2906 17.7085 93.0031 18.5117 92.4762 19.1553Z" fill="black"/>
<path d="M102.296 10.7612H100.219V23.0875H102.296V10.7612Z" fill="black"/>
<path d="M101.258 4.4407C101.057 4.43692 100.857 4.47474 100.671 4.55177C100.485 4.62879 100.318 4.74331 100.18 4.88801C99.9685 5.09862 99.8251 5.36635 99.7675 5.65746C99.71 5.94857 99.7407 6.25004 99.856 6.52386C99.9713 6.79768 100.166 7.03161 100.415 7.19615C100.665 7.3607 100.958 7.44851 101.258 7.44851C101.557 7.44851 101.85 7.3607 102.1 7.19615C102.349 7.03161 102.544 6.79768 102.659 6.52386C102.774 6.25004 102.805 5.94857 102.748 5.65746C102.69 5.36635 102.547 5.09862 102.336 4.88801C102.197 4.74325 102.03 4.62868 101.845 4.55164C101.659 4.47461 101.459 4.43682 101.258 4.4407V4.4407Z" fill="black"/>
<path d="M117.653 12.2929C117.069 11.7028 116.366 11.2404 115.591 10.9355C114.739 10.6034 113.831 10.4381 112.916 10.4487C112.054 10.4389 111.202 10.6286 110.427 11.0025C109.664 11.378 108.988 11.907 108.443 12.5556H108.388V10.7612H106.314V29.0931H108.388V20.9025H108.441C108.882 21.6536 109.524 22.2694 110.297 22.6814C111.194 23.1784 112.209 23.4286 113.237 23.406C114.078 23.4113 114.912 23.2453 115.686 22.9183C116.433 22.6046 117.108 22.143 117.669 21.5618C118.238 20.9679 118.685 20.2705 118.986 19.5082C119.625 17.8451 119.625 16.0079 118.986 14.3448C118.683 13.5808 118.229 12.8835 117.653 12.2929V12.2929ZM116.921 18.732C116.727 19.2687 116.424 19.7604 116.031 20.1767C115.638 20.593 115.163 20.9251 114.635 21.1523C113.467 21.6255 112.158 21.6255 110.991 21.1523C110.462 20.9251 109.986 20.5928 109.592 20.176C109.198 19.7592 108.895 19.2669 108.702 18.7295C108.294 17.5613 108.294 16.2917 108.702 15.1235C108.895 14.5861 109.198 14.0938 109.592 13.677C109.986 13.2602 110.462 12.9279 110.991 12.7007C112.158 12.2275 113.467 12.2275 114.635 12.7007C115.163 12.9279 115.639 13.2602 116.033 13.677C116.427 14.0938 116.73 14.5861 116.923 15.1235C117.331 16.2917 117.331 17.5613 116.923 18.7295L116.921 18.732Z" fill="black"/>
<path d="M129.923 16.9292C129.529 16.6373 129.089 16.4105 128.622 16.2578C128.108 16.0864 127.584 15.9498 127.051 15.8491C126.652 15.7816 126.257 15.6939 125.867 15.5864C125.52 15.493 125.181 15.3695 124.856 15.2172C124.595 15.1002 124.359 14.9346 124.161 14.7296C123.993 14.5462 123.903 14.3058 123.909 14.0582C123.905 13.791 123.984 13.529 124.135 13.3078C124.285 13.0893 124.48 12.9051 124.707 12.7678C124.951 12.6221 125.216 12.5155 125.493 12.4518C125.777 12.3823 126.068 12.3469 126.361 12.3462C126.917 12.3291 127.467 12.471 127.944 12.7549C128.375 13.0231 128.735 13.3886 128.996 13.8212L130.726 12.6888C130.342 11.9403 129.72 11.3382 128.955 10.976C128.184 10.6217 127.343 10.4419 126.494 10.4497C125.917 10.4483 125.344 10.5281 124.79 10.6867C124.26 10.8364 123.757 11.0682 123.299 11.3735C122.862 11.6657 122.498 12.0531 122.235 12.5059C121.962 12.9882 121.825 13.5334 121.835 14.0857C121.814 14.6263 121.938 15.1629 122.195 15.6405C122.429 16.04 122.756 16.3784 123.149 16.6278C123.583 16.8985 124.053 17.1069 124.546 17.2469C125.079 17.4048 125.638 17.5454 126.223 17.6684C126.561 17.7388 126.889 17.8178 127.208 17.9054C127.507 17.9848 127.793 18.1044 128.06 18.2608C128.294 18.3986 128.498 18.5823 128.658 18.8008C128.818 19.0429 128.897 19.3284 128.885 19.6173C128.894 19.9209 128.811 20.2202 128.645 20.4759C128.48 20.7182 128.262 20.9207 128.007 21.0683C127.731 21.2311 127.429 21.3471 127.115 21.4117C126.796 21.4811 126.47 21.5165 126.143 21.5173C125.496 21.5421 124.855 21.3868 124.293 21.0691C123.776 20.7435 123.321 20.3303 122.949 19.8483L121.301 21.1129C121.811 21.8971 122.536 22.5222 123.39 22.9159C124.266 23.2599 125.203 23.4257 126.145 23.4035C126.758 23.404 127.37 23.3335 127.967 23.1932C128.535 23.0633 129.075 22.8361 129.564 22.5218C130.031 22.2152 130.417 21.8032 130.692 21.3198C130.99 20.7713 131.137 20.1549 131.119 19.5323C131.136 18.9971 131.026 18.4654 130.799 17.9792C130.593 17.567 130.293 17.2077 129.923 16.9292V16.9292Z" fill="black"/>
<path d="M144.881 20.1641V10.7612H142.805V16.7711C142.811 17.419 142.735 18.0652 142.578 18.6943C142.445 19.2335 142.21 19.7428 141.884 20.195C141.575 20.6154 141.163 20.9508 140.686 21.1695C140.138 21.4104 139.543 21.5277 138.943 21.5129C138.537 21.5453 138.13 21.4809 137.755 21.3251C137.38 21.1693 137.048 20.9266 136.787 20.6174C136.288 19.8993 136.044 19.0379 136.093 18.168V10.7612H134.017V18.3732C134.01 19.0632 134.105 19.7505 134.296 20.4139C134.463 21.0021 134.759 21.5465 135.164 22.0083C135.569 22.4597 136.073 22.8123 136.639 23.0385C137.312 23.2988 138.032 23.4242 138.755 23.4077C139.241 23.4116 139.726 23.3448 140.192 23.2094C140.614 23.088 141.016 22.9109 141.39 22.6831C141.729 22.4761 142.038 22.2236 142.308 21.9327C142.55 21.6739 142.752 21.3808 142.907 21.063H142.96C142.96 21.415 142.969 21.7584 142.987 22.0933C143.005 22.4281 143.013 22.7618 143.013 23.0943H144.983C144.983 22.6897 144.965 22.2418 144.929 21.7507C144.894 21.2596 144.877 20.7307 144.881 20.1641Z" fill="black"/>
<path d="M167.319 13.4614C167.18 12.865 166.907 12.3073 166.52 11.8302C166.129 11.3685 165.625 11.0138 165.056 10.7999C164.34 10.5441 163.581 10.4236 162.82 10.4445C161.994 10.4088 161.176 10.6248 160.478 11.0635C159.831 11.5231 159.287 12.1107 158.881 12.7892C158.775 12.578 158.637 12.3364 158.468 12.0646C158.28 11.771 158.041 11.5124 157.763 11.3005C157.421 11.0432 157.04 10.8404 156.635 10.6995C156.091 10.5184 155.518 10.4335 154.944 10.4488C154.458 10.4448 153.974 10.5116 153.507 10.6471C153.086 10.7685 152.683 10.9456 152.309 11.1734C151.97 11.3806 151.661 11.6331 151.391 11.9238C151.149 12.1825 150.947 12.4757 150.793 12.7935H150.739C150.739 12.4415 150.73 12.0998 150.713 11.7632C150.696 11.4267 150.686 11.0961 150.686 10.7621H148.717C148.717 11.1668 148.734 11.6147 148.769 12.1058C148.805 12.5969 148.822 13.1237 148.822 13.6864V23.0884H150.9V17.0837C150.894 16.4355 150.97 15.789 151.127 15.1597C151.259 14.6202 151.495 14.1108 151.821 13.6589C152.129 13.2384 152.542 12.9029 153.018 12.6844C153.566 12.4434 154.162 12.3261 154.762 12.341C155.117 12.311 155.474 12.3746 155.797 12.5254C156.119 12.6762 156.396 12.9088 156.598 13.1996C157.044 14.1029 157.237 15.1079 157.157 16.1101V23.0901H159.229V15.9761C159.223 15.4692 159.309 14.9653 159.483 14.4883C159.636 14.0654 159.872 13.6764 160.177 13.343C160.464 13.0308 160.813 12.7799 161.201 12.6055C161.594 12.4294 162.021 12.3395 162.452 12.3419C162.965 12.3235 163.475 12.4225 163.943 12.6312C164.311 12.8075 164.631 13.0701 164.874 13.3962C165.108 13.7191 165.271 14.0866 165.354 14.4754C165.442 14.8822 165.487 15.2972 165.486 15.7134V23.0884H167.558V15.6078C167.566 14.8854 167.485 14.1648 167.319 13.4614Z" fill="black"/>
</svg>
