<svg width="240" height="96" viewBox="0 0 240 96" fill="none" xmlns="http://www.w3.org/2000/svg">
<g clip-path="url(#clip0_1_1737)">
<path d="M0 41.718V50.16C3.005 50.158 5.98092 50.7248 8.75748 51.8281C11.534 52.9314 14.0567 54.5494 16.1812 56.5896C18.3052 58.6291 19.9896 61.0504 21.1382 63.7152C22.2868 66.3801 22.8769 69.2361 22.875 72.12H31.6625C31.6546 64.0603 28.3163 56.3327 22.3804 50.6331C16.4444 44.9334 8.39555 41.7272 0 41.718H0Z" fill="white"/>
<path d="M43.9463 26.52H30.02C37.065 30.806 43.0345 36.5358 47.5 43.2984V29.9292C47.4994 29.0248 47.1247 28.1577 46.4583 27.5184C45.7919 26.8791 44.8884 26.52 43.9463 26.52V26.52Z" fill="white"/>
<path d="M8.75 26.52H0V34.1208C10.4947 34.1313 20.5564 38.1381 27.9774 45.262C35.3984 52.3859 39.5725 62.0451 39.5837 72.12H47.5V63.72C45.7102 54.4878 41.05 45.9924 34.1331 39.3522C27.2162 32.712 18.3668 28.2382 8.75 26.52V26.52Z" fill="white"/>
<path d="M69.0389 31.5396H63.4614V58.5276H69.0389V31.5396Z" fill="white"/>
<path d="M89.5465 43.2324C88.6179 42.4221 87.5311 41.7968 86.349 41.3928C83.8095 40.5368 81.0421 40.5368 78.5027 41.3928C77.32 41.7965 76.2327 42.4219 75.304 43.2324C74.3931 44.0386 73.6654 45.0166 73.1665 46.1052C72.6508 47.2928 72.3853 48.5667 72.3853 49.8534C72.3853 51.1401 72.6508 52.414 73.1665 53.6016C73.6635 54.6933 74.3914 55.6741 75.304 56.4816C76.2311 57.2927 77.3178 57.9178 78.5002 58.32C81.0393 59.1776 83.8073 59.1776 86.3465 58.32C87.5292 57.9178 88.6163 57.2928 89.544 56.4816C90.4561 55.6737 91.1839 54.6931 91.6815 53.6016C92.1971 52.414 92.4626 51.1401 92.4626 49.8534C92.4626 48.5667 92.1971 47.2928 91.6815 46.1052C91.183 45.0169 90.4562 44.039 89.5465 43.2324ZM85.7164 53.0316C84.8133 53.8126 83.6408 54.2449 82.4252 54.2449C81.2096 54.2449 80.0371 53.8126 79.1339 53.0316C78.3748 52.132 77.9606 51.0094 77.9606 49.8516C77.9606 48.6938 78.3748 47.5712 79.1339 46.6716C80.0371 45.8906 81.2096 45.4583 82.4252 45.4583C83.6408 45.4583 84.8133 45.8906 85.7164 46.6716C86.4756 47.5712 86.8898 48.6938 86.8898 49.8516C86.8898 51.0094 86.4756 52.132 85.7164 53.0316V53.0316Z" fill="white"/>
<path d="M109.57 43.464H109.5C109.242 43.1164 108.942 42.799 108.607 42.5184C108.202 42.1738 107.752 41.8795 107.27 41.6424C106.051 41.0419 104.698 40.7359 103.327 40.7508C102.127 40.7306 100.939 40.9944 99.8699 41.5188C98.8735 42.0142 97.9936 42.7007 97.2849 43.536C96.5623 44.3969 96.0079 45.3763 95.6487 46.4268C95.2667 47.5091 95.072 48.6441 95.0724 49.7868C95.0583 51.0134 95.2725 52.2325 95.7049 53.3868C96.0967 54.4402 96.7074 55.4061 97.4999 56.226C98.2895 57.0283 99.2478 57.6603 100.311 58.08C101.467 58.5324 102.707 58.7568 103.955 58.74C104.878 58.7247 105.791 58.5495 106.65 58.2228C107.613 57.8722 108.447 57.2575 109.049 56.4552H109.124V58.1352C109.145 58.6956 109.048 59.2543 108.841 59.7784C108.633 60.3025 108.318 60.7814 107.915 61.1868C107.403 61.6216 106.804 61.9522 106.156 62.1584C105.507 62.3647 104.821 62.4424 104.14 62.3868C103.06 62.3984 101.99 62.1915 100.999 61.7796C100.013 61.3566 99.0926 60.8041 98.2649 60.138L95.1787 64.56C96.4402 65.5354 97.9147 66.225 99.4924 66.5772C101.054 66.9218 102.651 67.0953 104.252 67.0944C107.772 67.0944 110.394 66.2436 112.116 64.542C113.839 62.8404 114.7 60.3476 114.701 57.0636V41.1792H109.576L109.57 43.464ZM109.235 51.3708C109.015 51.8788 108.692 52.34 108.286 52.728C107.873 53.1237 107.388 53.4441 106.855 53.6736C106.302 53.9094 105.703 54.0313 105.098 54.0313C104.493 54.0313 103.894 53.9094 103.341 53.6736C102.816 53.4408 102.337 53.1207 101.927 52.728C101.519 52.3367 101.196 51.8721 100.975 51.3606C100.754 50.8491 100.64 50.3009 100.64 49.7472C100.64 49.1935 100.754 48.6453 100.975 48.1338C101.196 47.6224 101.519 47.1577 101.927 46.7664C102.337 46.3737 102.816 46.0532 103.341 45.8196C103.895 45.5846 104.493 45.4632 105.098 45.4632C105.703 45.4632 106.302 45.5846 106.855 45.8196C107.387 46.05 107.872 46.3707 108.286 46.7664C108.9 47.3585 109.317 48.1115 109.486 48.9308C109.655 49.7501 109.568 50.5991 109.235 51.3708V51.3708Z" fill="white"/>
<path d="M135.655 43.2324C134.726 42.4221 133.639 41.7968 132.457 41.3928C129.918 40.5368 127.151 40.5368 124.611 41.3928C123.428 41.7965 122.341 42.4219 121.412 43.2324C120.501 44.0386 119.774 45.0166 119.275 46.1052C118.759 47.2928 118.494 48.5667 118.494 49.8534C118.494 51.1401 118.759 52.414 119.275 53.6016C119.772 54.6933 120.5 55.6741 121.412 56.4816C122.34 57.293 123.428 57.9181 124.611 58.32C127.15 59.1776 129.918 59.1776 132.457 58.32C133.64 57.9178 134.727 57.2928 135.655 56.4816C136.567 55.6741 137.295 54.6933 137.792 53.6016C138.308 52.414 138.574 51.1401 138.574 49.8534C138.574 48.5667 138.308 47.2928 137.792 46.1052C137.293 45.0166 136.566 44.0386 135.655 43.2324V43.2324ZM131.825 53.0316C130.922 53.8126 129.749 54.2449 128.534 54.2449C127.318 54.2449 126.146 53.8126 125.242 53.0316C124.483 52.132 124.069 51.0094 124.069 49.8516C124.069 48.6938 124.483 47.5712 125.242 46.6716C126.146 45.8906 127.318 45.4583 128.534 45.4583C129.749 45.4583 130.922 45.8906 131.825 46.6716C132.584 47.5712 132.998 48.6938 132.998 49.8516C132.998 51.0094 132.584 52.132 131.825 53.0316Z" fill="white"/>
<path d="M145.973 41.2992H142.981V58.5276H145.973V41.2992Z" fill="white"/>
<path d="M144.478 32.4648C144.188 32.4595 143.9 32.5124 143.632 32.62C143.365 32.7277 143.123 32.8878 142.924 33.09C142.62 33.3844 142.413 33.7586 142.33 34.1655C142.247 34.5724 142.292 34.9937 142.458 35.3764C142.624 35.7592 142.904 36.0861 143.264 36.3161C143.623 36.5461 144.045 36.6688 144.477 36.6688C144.909 36.6688 145.331 36.5461 145.691 36.3161C146.05 36.0861 146.33 35.7592 146.496 35.3764C146.662 34.9937 146.707 34.5724 146.624 34.1655C146.541 33.7586 146.334 33.3844 146.03 33.09C145.831 32.8877 145.59 32.7275 145.323 32.6199C145.055 32.5122 144.768 32.4594 144.478 32.4648V32.4648Z" fill="white"/>
<path d="M168.099 43.44C167.257 42.6153 166.245 41.969 165.128 41.5428C163.901 41.0787 162.592 40.8476 161.274 40.8624C160.032 40.8487 158.804 41.1138 157.688 41.6364C156.588 42.1613 155.615 42.9006 154.83 43.8072H154.75V41.2992H151.763V66.9216H154.75V55.4736H154.826C155.461 56.5235 156.387 57.3841 157.5 57.96C158.793 58.6547 160.255 59.0044 161.736 58.9728C162.949 58.9802 164.15 58.7482 165.265 58.2912C166.342 57.8527 167.314 57.2075 168.121 56.3952C168.941 55.565 169.586 54.5903 170.02 53.5248C170.94 51.2003 170.94 48.6325 170.02 46.308C169.582 45.24 168.93 44.2655 168.099 43.44V43.44ZM167.044 52.44C166.765 53.1901 166.329 53.8774 165.762 54.4593C165.196 55.0411 164.511 55.5052 163.75 55.8228C162.068 56.4842 160.182 56.4842 158.5 55.8228C157.738 55.5052 157.052 55.0407 156.485 54.4582C155.918 53.8757 155.481 53.1875 155.203 52.4364C154.616 50.8037 154.616 49.0291 155.203 47.3964C155.481 46.6453 155.918 45.9571 156.485 45.3746C157.052 44.7921 157.738 44.3276 158.5 44.01C160.182 43.3486 162.068 43.3486 163.75 44.01C164.512 44.3276 165.198 44.7921 165.765 45.3746C166.332 45.9571 166.769 46.6453 167.048 47.3964C167.635 49.0291 167.635 50.8037 167.048 52.4364L167.044 52.44Z" fill="white"/>
<path d="M185.777 49.92C185.209 49.512 184.576 49.195 183.902 48.9816C183.163 48.742 182.407 48.5512 181.64 48.4104C181.065 48.316 180.496 48.1935 179.934 48.0432C179.433 47.9126 178.945 47.74 178.476 47.5272C178.101 47.3636 177.761 47.1322 177.476 46.8456C177.234 46.5893 177.104 46.2532 177.112 45.9072C177.107 45.5337 177.22 45.1676 177.439 44.8584C177.654 44.553 177.935 44.2955 178.262 44.1036C178.613 43.9 178.996 43.7509 179.395 43.662C179.804 43.5648 180.224 43.5153 180.645 43.5144C181.447 43.4905 182.239 43.6888 182.926 44.0856C183.547 44.4605 184.066 44.9712 184.441 45.576L186.934 43.9932C186.381 42.947 185.485 42.1054 184.382 41.5992C183.272 41.104 182.061 40.8527 180.836 40.8636C180.006 40.8617 179.18 40.9732 178.382 41.1948C177.618 41.4041 176.893 41.7281 176.234 42.1548C175.603 42.5633 175.079 43.1047 174.7 43.7376C174.308 44.4116 174.109 45.1737 174.125 45.9456C174.094 46.7012 174.272 47.4513 174.642 48.1188C174.98 48.6771 175.451 49.1502 176.017 49.4988C176.642 49.8771 177.32 50.1684 178.03 50.364C178.797 50.5848 179.603 50.7812 180.446 50.9532C180.933 51.0516 181.406 51.162 181.865 51.2844C182.296 51.3954 182.709 51.5625 183.092 51.7812C183.431 51.9737 183.724 52.2306 183.955 52.536C184.185 52.8743 184.299 53.2734 184.281 53.6772C184.295 54.1015 184.175 54.5198 183.936 54.8772C183.698 55.216 183.384 55.4989 183.016 55.7052C182.619 55.9327 182.184 56.095 181.731 56.1852C181.271 56.2822 180.802 56.3316 180.331 56.3328C179.399 56.3674 178.476 56.1504 177.666 55.7064C176.921 55.2513 176.266 54.6737 175.73 54L173.355 55.7676C174.09 56.8637 175.134 57.7374 176.365 58.2876C177.627 58.7684 178.977 59.0002 180.334 58.9692C181.218 58.9699 182.099 58.8712 182.959 58.6752C183.777 58.4936 184.556 58.176 185.26 57.7368C185.933 57.3082 186.489 56.7324 186.885 56.0568C187.314 55.29 187.526 54.4285 187.5 53.5584C187.524 52.8103 187.367 52.0671 187.04 51.3876C186.743 50.8115 186.311 50.3092 185.777 49.92V49.92Z" fill="white"/>
<path d="M207.328 54.4416V41.2992H204.336V49.6992C204.346 50.6048 204.236 51.5079 204.01 52.3872C203.818 53.1409 203.479 53.8528 203.01 54.4848C202.565 55.0724 201.971 55.5412 201.284 55.8468C200.494 56.1835 199.637 56.3475 198.773 56.3268C198.188 56.3721 197.601 56.2821 197.061 56.0643C196.52 55.8465 196.042 55.5073 195.666 55.0752C194.948 54.0715 194.596 52.8676 194.666 51.6516V41.2992H191.675V51.9384C191.666 52.9028 191.802 53.8635 192.078 54.7908C192.318 55.6129 192.745 56.3738 193.328 57.0192C193.911 57.6501 194.638 58.143 195.453 58.4592C196.423 58.8229 197.46 58.9983 198.501 58.9752C199.202 58.9806 199.9 58.8873 200.573 58.698C201.18 58.5283 201.76 58.2809 202.298 57.9624C202.787 57.6731 203.232 57.3202 203.62 56.9136C203.969 56.5519 204.261 56.1422 204.484 55.698H204.56C204.56 56.19 204.573 56.67 204.599 57.138C204.625 57.606 204.637 58.0724 204.636 58.5372H207.475C207.475 57.9716 207.449 57.3456 207.398 56.6592C207.346 55.9728 207.323 55.2336 207.328 54.4416Z" fill="white"/>
<path d="M239.655 45.0732C239.455 44.2396 239.061 43.4601 238.504 42.7932C237.94 42.1479 237.214 41.6521 236.395 41.3532C235.363 40.9957 234.27 40.8272 233.174 40.8564C231.983 40.8065 230.805 41.1085 229.799 41.7216C228.866 42.3639 228.083 43.1853 227.499 44.1336C227.345 43.8384 227.147 43.5008 226.904 43.1208C226.632 42.7105 226.288 42.349 225.887 42.0528C225.395 41.6932 224.846 41.4098 224.262 41.2128C223.478 40.9596 222.653 40.841 221.826 40.8624C221.126 40.8569 220.428 40.9503 219.756 41.1396C219.149 41.3093 218.568 41.5567 218.03 41.8752C217.541 42.1649 217.096 42.5178 216.707 42.924C216.358 43.2857 216.068 43.6954 215.845 44.1396H215.767C215.767 43.6476 215.755 43.17 215.73 42.6996C215.705 42.2292 215.691 41.7672 215.691 41.3004H212.854C212.854 41.866 212.879 42.492 212.93 43.1784C212.981 43.8648 213.006 44.6012 213.006 45.3876V58.5288H216V50.136C215.99 49.23 216.1 48.3265 216.326 47.4468C216.517 46.6928 216.856 45.9808 217.326 45.3492C217.771 44.7614 218.364 44.2926 219.051 43.9872C219.841 43.6503 220.699 43.4863 221.564 43.5072C222.076 43.4652 222.59 43.5541 223.055 43.7649C223.519 43.9757 223.917 44.3008 224.209 44.7072C224.851 45.9698 225.129 47.3744 225.015 48.7752V58.5312H228V48.588C227.991 47.8794 228.115 47.1751 228.365 46.5084C228.586 45.9174 228.926 45.3736 229.365 44.9076C229.779 44.4713 230.281 44.1206 230.841 43.8768C231.407 43.6308 232.022 43.5051 232.644 43.5084C233.382 43.4827 234.117 43.6211 234.791 43.9128C235.322 44.1592 235.782 44.5262 236.132 44.982C236.469 45.4333 236.705 45.947 236.824 46.4904C236.951 47.059 237.016 47.6391 237.015 48.2208V58.5288H240V48.0732C240.011 47.0635 239.895 46.0562 239.655 45.0732Z" fill="white"/>
</g>
<defs>
<clipPath id="clip0_1_1737">
<rect width="240" height="96" fill="white"/>
</clipPath>
</defs>
</svg>
