<svg width="32" height="32" viewBox="0 0 32 32" fill="none" xmlns="http://www.w3.org/2000/svg">
<g id="Heart">
<path id="Vector" d="M15.9999 28.7609L4.68656 17.4476C3.18614 15.9473 2.34314 13.9125 2.34302 11.7907C2.34289 9.66893 3.18565 7.634 4.68589 6.13358C6.18613 4.63316 8.22097 3.79016 10.3428 3.79004C12.4645 3.78991 14.4995 4.63267 15.9999 6.13291C17.501 4.63437 19.5355 3.79271 21.6566 3.79271C23.7777 3.79271 25.8121 4.63437 27.3132 6.13291V6.13291C28.8111 7.6344 29.6523 9.66869 29.6523 11.7896C29.6523 13.9105 28.8111 15.9448 27.3132 17.4462L15.9999 28.7609ZM10.3426 6.45691C9.28762 6.45687 8.25636 6.76969 7.37922 7.35581C6.50208 7.94192 5.81846 8.775 5.41484 9.74968C5.01121 10.7243 4.9057 11.7968 5.11166 12.8315C5.31761 13.8661 5.82578 14.8164 6.57189 15.5622L15.9999 24.9902L25.4279 15.5622C25.9694 15.0328 26.392 14.3941 26.6674 13.6886C26.9429 12.9831 27.0649 12.2271 27.0255 11.4708C26.986 10.7145 26.7859 9.97524 26.4385 9.30228C26.0911 8.62932 25.6043 8.03807 25.0106 7.56786C24.4169 7.09766 23.7299 6.75929 22.9953 6.57527C22.2606 6.39126 21.4952 6.36581 20.75 6.50063C20.0047 6.63544 19.2967 6.92743 18.6731 7.35716C18.0495 7.7869 17.5246 8.34451 17.1332 8.99291L15.9999 10.8222L14.8666 8.99291C14.3987 8.21296 13.7351 7.56885 12.9415 7.12447C12.148 6.6801 11.252 6.45089 10.3426 6.45958V6.45691Z" fill="black"/>
</g>
</svg>
